<?xml version="1.0" encoding="UTF-8"?>
<svg xmlns:xlink="http://www.w3.org/1999/xlink" aria-roledescription="flowchart-v2" role="graphics-document document" viewBox="0 0 307.671875 844" style="max-width: 100%;" class="flowchart" xmlns="http://www.w3.org/2000/svg" width="100%" id="mermaid-svg-23" height="100%"><style>#mermaid-svg-23{font-family:"trebuchet ms",verdana,arial,sans-serif;font-size:16px;fill:#333;}@keyframes edge-animation-frame{from{stroke-dashoffset:0;}}@keyframes dash{to{stroke-dashoffset:0;}}#mermaid-svg-23 .edge-animation-slow{stroke-dasharray:9,5!important;stroke-dashoffset:900;animation:dash 50s linear infinite;stroke-linecap:round;}#mermaid-svg-23 .edge-animation-fast{stroke-dasharray:9,5!important;stroke-dashoffset:900;animation:dash 20s linear infinite;stroke-linecap:round;}#mermaid-svg-23 .error-icon{fill:#552222;}#mermaid-svg-23 .error-text{fill:#552222;stroke:#552222;}#mermaid-svg-23 .edge-thickness-normal{stroke-width:1px;}#mermaid-svg-23 .edge-thickness-thick{stroke-width:3.5px;}#mermaid-svg-23 .edge-pattern-solid{stroke-dasharray:0;}#mermaid-svg-23 .edge-thickness-invisible{stroke-width:0;fill:none;}#mermaid-svg-23 .edge-pattern-dashed{stroke-dasharray:3;}#mermaid-svg-23 .edge-pattern-dotted{stroke-dasharray:2;}#mermaid-svg-23 .marker{fill:#333333;stroke:#333333;}#mermaid-svg-23 .marker.cross{stroke:#333333;}#mermaid-svg-23 svg{font-family:"trebuchet ms",verdana,arial,sans-serif;font-size:16px;}#mermaid-svg-23 p{margin:0;}#mermaid-svg-23 .label{font-family:"trebuchet ms",verdana,arial,sans-serif;color:#333;}#mermaid-svg-23 .cluster-label text{fill:#333;}#mermaid-svg-23 .cluster-label span{color:#333;}#mermaid-svg-23 .cluster-label span p{background-color:transparent;}#mermaid-svg-23 .label text,#mermaid-svg-23 span{fill:#333;color:#333;}#mermaid-svg-23 .node rect,#mermaid-svg-23 .node circle,#mermaid-svg-23 .node ellipse,#mermaid-svg-23 .node polygon,#mermaid-svg-23 .node path{fill:#ECECFF;stroke:#9370DB;stroke-width:1px;}#mermaid-svg-23 .rough-node .label text,#mermaid-svg-23 .node .label text,#mermaid-svg-23 .image-shape .label,#mermaid-svg-23 .icon-shape .label{text-anchor:middle;}#mermaid-svg-23 .node .katex path{fill:#000;stroke:#000;stroke-width:1px;}#mermaid-svg-23 .rough-node .label,#mermaid-svg-23 .node .label,#mermaid-svg-23 .image-shape .label,#mermaid-svg-23 .icon-shape .label{text-align:center;}#mermaid-svg-23 .node.clickable{cursor:pointer;}#mermaid-svg-23 .root .anchor path{fill:#333333!important;stroke-width:0;stroke:#333333;}#mermaid-svg-23 .arrowheadPath{fill:#333333;}#mermaid-svg-23 .edgePath .path{stroke:#333333;stroke-width:2.0px;}#mermaid-svg-23 .flowchart-link{stroke:#333333;fill:none;}#mermaid-svg-23 .edgeLabel{background-color:rgba(232,232,232, 0.8);text-align:center;}#mermaid-svg-23 .edgeLabel p{background-color:rgba(232,232,232, 0.8);}#mermaid-svg-23 .edgeLabel rect{opacity:0.5;background-color:rgba(232,232,232, 0.8);fill:rgba(232,232,232, 0.8);}#mermaid-svg-23 .labelBkg{background-color:rgba(232, 232, 232, 0.5);}#mermaid-svg-23 .cluster rect{fill:#ffffde;stroke:#aaaa33;stroke-width:1px;}#mermaid-svg-23 .cluster text{fill:#333;}#mermaid-svg-23 .cluster span{color:#333;}#mermaid-svg-23 div.mermaidTooltip{position:absolute;text-align:center;max-width:200px;padding:2px;font-family:"trebuchet ms",verdana,arial,sans-serif;font-size:12px;background:hsl(80, 100%, 96.2745098039%);border:1px solid #aaaa33;border-radius:2px;pointer-events:none;z-index:100;}#mermaid-svg-23 .flowchartTitleText{text-anchor:middle;font-size:18px;fill:#333;}#mermaid-svg-23 rect.text{fill:none;stroke-width:0;}#mermaid-svg-23 .icon-shape,#mermaid-svg-23 .image-shape{background-color:rgba(232,232,232, 0.8);text-align:center;}#mermaid-svg-23 .icon-shape p,#mermaid-svg-23 .image-shape p{background-color:rgba(232,232,232, 0.8);padding:2px;}#mermaid-svg-23 .icon-shape rect,#mermaid-svg-23 .image-shape rect{opacity:0.5;background-color:rgba(232,232,232, 0.8);fill:rgba(232,232,232, 0.8);}#mermaid-svg-23 :root{--mermaid-font-family:"trebuchet ms",verdana,arial,sans-serif;}</style><g><marker orient="auto" markerHeight="8" markerWidth="8" markerUnits="userSpaceOnUse" refY="5" refX="5" viewBox="0 0 10 10" class="marker flowchart-v2" id="mermaid-svg-23_flowchart-v2-pointEnd"><path style="stroke-width: 1; stroke-dasharray: 1, 0;" class="arrowMarkerPath" d="M 0 0 L 10 5 L 0 10 z"></path></marker><marker orient="auto" markerHeight="8" markerWidth="8" markerUnits="userSpaceOnUse" refY="5" refX="4.5" viewBox="0 0 10 10" class="marker flowchart-v2" id="mermaid-svg-23_flowchart-v2-pointStart"><path style="stroke-width: 1; stroke-dasharray: 1, 0;" class="arrowMarkerPath" d="M 0 5 L 10 10 L 10 0 z"></path></marker><marker orient="auto" markerHeight="11" markerWidth="11" markerUnits="userSpaceOnUse" refY="5" refX="11" viewBox="0 0 10 10" class="marker flowchart-v2" id="mermaid-svg-23_flowchart-v2-circleEnd"><circle style="stroke-width: 1; stroke-dasharray: 1, 0;" class="arrowMarkerPath" r="5" cy="5" cx="5"></circle></marker><marker orient="auto" markerHeight="11" markerWidth="11" markerUnits="userSpaceOnUse" refY="5" refX="-1" viewBox="0 0 10 10" class="marker flowchart-v2" id="mermaid-svg-23_flowchart-v2-circleStart"><circle style="stroke-width: 1; stroke-dasharray: 1, 0;" class="arrowMarkerPath" r="5" cy="5" cx="5"></circle></marker><marker orient="auto" markerHeight="11" markerWidth="11" markerUnits="userSpaceOnUse" refY="5.2" refX="12" viewBox="0 0 11 11" class="marker cross flowchart-v2" id="mermaid-svg-23_flowchart-v2-crossEnd"><path style="stroke-width: 2; stroke-dasharray: 1, 0;" class="arrowMarkerPath" d="M 1,1 l 9,9 M 10,1 l -9,9"></path></marker><marker orient="auto" markerHeight="11" markerWidth="11" markerUnits="userSpaceOnUse" refY="5.2" refX="-1" viewBox="0 0 11 11" class="marker cross flowchart-v2" id="mermaid-svg-23_flowchart-v2-crossStart"><path style="stroke-width: 2; stroke-dasharray: 1, 0;" class="arrowMarkerPath" d="M 1,1 l 9,9 M 10,1 l -9,9"></path></marker><g class="root"><g class="clusters"><g data-look="classic" id="运动规划" class="cluster"><rect height="208" width="276.25390625" y="628" x="8" style=""></rect><g transform="translate(114.126953125, 628)" class="cluster-label"><foreignObject height="24" width="64"><div style="display: table-cell; white-space: nowrap; line-height: 1.5; max-width: 200px; text-align: center;" xmlns="http://www.w3.org/1999/xhtml"><span class="nodeLabel"><p>运动规划</p></span></div></foreignObject></g></g><g data-look="classic" id="控制逻辑" class="cluster"><rect height="208" width="226" y="370" x="70.8359375" style=""></rect><g transform="translate(151.8359375, 370)" class="cluster-label"><foreignObject height="24" width="64"><div style="display: table-cell; white-space: nowrap; line-height: 1.5; max-width: 200px; text-align: center;" xmlns="http://www.w3.org/1999/xhtml"><span class="nodeLabel"><p>控制逻辑</p></span></div></foreignObject></g></g><g data-look="classic" id="视觉处理" class="cluster"><rect height="208" width="231.671875" y="112" x="68" style=""></rect><g transform="translate(151.8359375, 112)" class="cluster-label"><foreignObject height="24" width="64"><div style="display: table-cell; white-space: nowrap; line-height: 1.5; max-width: 200px; text-align: center;" xmlns="http://www.w3.org/1999/xhtml"><span class="nodeLabel"><p>视觉处理</p></span></div></foreignObject></g></g></g><g class="edgePaths"><path marker-end="url(#mermaid-svg-23_flowchart-v2-pointEnd)" style="" class="edge-thickness-normal edge-pattern-solid edge-thickness-normal edge-pattern-solid flowchart-link" id="L_A_B_0" d="M164.605,62L167.81,66.167C171.015,70.333,177.426,78.667,180.631,87C183.836,95.333,183.836,103.667,183.836,111.333C183.836,119,183.836,126,183.836,129.5L183.836,133"></path><path marker-end="url(#mermaid-svg-23_flowchart-v2-pointEnd)" style="" class="edge-thickness-normal edge-pattern-solid edge-thickness-normal edge-pattern-solid flowchart-link" id="L_A_F_0" d="M94.075,62L86.396,66.167C78.717,70.333,63.358,78.667,55.679,87C48,95.333,48,103.667,48,116.5C48,129.333,48,146.667,48,164C48,181.333,48,198.667,48,216C48,233.333,48,250.667,48,268C48,285.333,48,302.667,48,315.5C48,328.333,48,336.667,48,345C48,353.333,48,361.667,48,374.5C48,387.333,48,404.667,48,422C48,439.333,48,456.667,48,474C48,491.333,48,508.667,48,526C48,543.333,48,560.667,48,573.5C48,586.333,48,594.667,48,603C48,611.333,48,619.667,55.093,627.682C62.186,635.697,76.373,643.395,83.466,647.244L90.559,651.092"></path><path marker-end="url(#mermaid-svg-23_flowchart-v2-pointEnd)" style="" class="edge-thickness-normal edge-pattern-solid edge-thickness-normal edge-pattern-solid flowchart-link" id="L_B_C_0" d="M158.955,191L155.116,195.167C151.276,199.333,143.597,207.667,143.145,215.51C142.694,223.353,149.469,230.706,152.857,234.382L156.245,238.058"></path><path marker-end="url(#mermaid-svg-23_flowchart-v2-pointEnd)" style="" class="edge-thickness-normal edge-pattern-solid edge-thickness-normal edge-pattern-solid flowchart-link" id="L_C_D_0" d="M164.884,295L161.959,299.167C159.035,303.333,153.185,311.667,150.261,320C147.336,328.333,147.336,336.667,147.336,345C147.336,353.333,147.336,361.667,149.878,369.454C152.419,377.242,157.503,384.484,160.044,388.105L162.586,391.726"></path><path marker-end="url(#mermaid-svg-23_flowchart-v2-pointEnd)" style="" class="edge-thickness-normal edge-pattern-solid edge-thickness-normal edge-pattern-solid flowchart-link" id="L_D_E_0" d="M159.692,449L155.966,453.167C152.24,457.333,144.788,465.667,144.343,473.503C143.899,481.339,150.462,488.679,153.744,492.349L157.025,496.018"></path><path marker-end="url(#mermaid-svg-23_flowchart-v2-pointEnd)" style="" class="edge-thickness-normal edge-pattern-solid edge-thickness-normal edge-pattern-solid flowchart-link" id="L_E_F_0" d="M165.446,553L162.608,557.167C159.77,561.333,154.094,569.667,151.256,578C148.418,586.333,148.418,594.667,148.418,603C148.418,611.333,148.418,619.667,148.109,627.336C147.801,635.005,147.183,642.01,146.875,645.513L146.566,649.015"></path><path marker-end="url(#mermaid-svg-23_flowchart-v2-pointEnd)" style="" class="edge-thickness-normal edge-pattern-solid edge-thickness-normal edge-pattern-solid flowchart-link" id="L_F_G_0" d="M105.758,707L99.881,711.167C94.005,715.333,82.253,723.667,81.709,731.614C81.165,739.562,91.83,747.124,97.162,750.905L102.495,754.686"></path><path marker-end="url(#mermaid-svg-23_flowchart-v2-pointEnd)" style="" class="edge-thickness-normal edge-pattern-solid edge-thickness-normal edge-pattern-solid flowchart-link" id="L_B_C_2" d="M208.716,191L212.556,195.167C216.396,199.333,224.075,207.667,224.527,215.51C224.978,223.353,218.203,230.706,214.815,234.382L211.427,238.058"></path><path marker-end="url(#mermaid-svg-23_flowchart-v2-pointEnd)" style="" class="edge-thickness-normal edge-pattern-solid edge-thickness-normal edge-pattern-solid flowchart-link" id="L_C_D_2" d="M207.98,295L211.706,299.167C215.432,303.333,222.884,311.667,226.61,320C230.336,328.333,230.336,336.667,230.336,345C230.336,353.333,230.336,361.667,227.054,369.503C223.773,377.339,217.21,384.679,213.928,388.349L210.647,392.018"></path><path marker-end="url(#mermaid-svg-23_flowchart-v2-pointEnd)" style="" class="edge-thickness-normal edge-pattern-solid edge-thickness-normal edge-pattern-solid flowchart-link" id="L_D_E_2" d="M207.98,449L211.706,453.167C215.432,457.333,222.884,465.667,223.328,473.503C223.773,481.339,217.21,488.679,213.928,492.349L210.647,496.018"></path><path marker-end="url(#mermaid-svg-23_flowchart-v2-pointEnd)" style="" class="edge-thickness-normal edge-pattern-solid edge-thickness-normal edge-pattern-solid flowchart-link" id="L_E_F_2" d="M205.903,553L209.309,557.167C212.714,561.333,219.525,569.667,222.93,578C226.336,586.333,226.336,594.667,226.336,603C226.336,611.333,226.336,619.667,220.289,627.645C214.243,635.622,202.15,643.245,196.103,647.056L190.056,650.867"></path><path marker-end="url(#mermaid-svg-23_flowchart-v2-pointEnd)" style="" class="edge-thickness-normal edge-pattern-solid edge-thickness-normal edge-pattern-solid flowchart-link" id="L_F_G_2" d="M184.293,707L190.537,711.167C196.78,715.333,209.267,723.667,209.822,731.63C210.376,739.593,198.998,747.186,193.309,750.983L187.62,754.78"></path></g><g class="edgeLabels"><g class="edgeLabel"><g transform="translate(0, 0)" class="label"><foreignObject height="0" width="0"><div style="display: table-cell; white-space: nowrap; line-height: 1.5; max-width: 200px; text-align: center;" class="labelBkg" xmlns="http://www.w3.org/1999/xhtml"><span class="edgeLabel"></span></div></foreignObject></g></g><g class="edgeLabel"><g transform="translate(0, 0)" class="label"><foreignObject height="0" width="0"><div style="display: table-cell; white-space: nowrap; line-height: 1.5; max-width: 200px; text-align: center;" class="labelBkg" xmlns="http://www.w3.org/1999/xhtml"><span class="edgeLabel"></span></div></foreignObject></g></g><g class="edgeLabel"><g transform="translate(0, 0)" class="label"><foreignObject height="0" width="0"><div style="display: table-cell; white-space: nowrap; line-height: 1.5; max-width: 200px; text-align: center;" class="labelBkg" xmlns="http://www.w3.org/1999/xhtml"><span class="edgeLabel"></span></div></foreignObject></g></g><g class="edgeLabel"><g transform="translate(0, 0)" class="label"><foreignObject height="0" width="0"><div style="display: table-cell; white-space: nowrap; line-height: 1.5; max-width: 200px; text-align: center;" class="labelBkg" xmlns="http://www.w3.org/1999/xhtml"><span class="edgeLabel"></span></div></foreignObject></g></g><g class="edgeLabel"><g transform="translate(0, 0)" class="label"><foreignObject height="0" width="0"><div style="display: table-cell; white-space: nowrap; line-height: 1.5; max-width: 200px; text-align: center;" class="labelBkg" xmlns="http://www.w3.org/1999/xhtml"><span class="edgeLabel"></span></div></foreignObject></g></g><g class="edgeLabel"><g transform="translate(0, 0)" class="label"><foreignObject height="0" width="0"><div style="display: table-cell; white-space: nowrap; line-height: 1.5; max-width: 200px; text-align: center;" class="labelBkg" xmlns="http://www.w3.org/1999/xhtml"><span class="edgeLabel"></span></div></foreignObject></g></g><g class="edgeLabel"><g transform="translate(0, 0)" class="label"><foreignObject height="0" width="0"><div style="display: table-cell; white-space: nowrap; line-height: 1.5; max-width: 200px; text-align: center;" class="labelBkg" xmlns="http://www.w3.org/1999/xhtml"><span class="edgeLabel"></span></div></foreignObject></g></g><g class="edgeLabel"><g transform="translate(0, 0)" class="label"><foreignObject height="0" width="0"><div style="display: table-cell; white-space: nowrap; line-height: 1.5; max-width: 200px; text-align: center;" class="labelBkg" xmlns="http://www.w3.org/1999/xhtml"><span class="edgeLabel"></span></div></foreignObject></g></g><g class="edgeLabel"><g transform="translate(0, 0)" class="label"><foreignObject height="0" width="0"><div style="display: table-cell; white-space: nowrap; line-height: 1.5; max-width: 200px; text-align: center;" class="labelBkg" xmlns="http://www.w3.org/1999/xhtml"><span class="edgeLabel"></span></div></foreignObject></g></g><g class="edgeLabel"><g transform="translate(0, 0)" class="label"><foreignObject height="0" width="0"><div style="display: table-cell; white-space: nowrap; line-height: 1.5; max-width: 200px; text-align: center;" class="labelBkg" xmlns="http://www.w3.org/1999/xhtml"><span class="edgeLabel"></span></div></foreignObject></g></g><g class="edgeLabel"><g transform="translate(0, 0)" class="label"><foreignObject height="0" width="0"><div style="display: table-cell; white-space: nowrap; line-height: 1.5; max-width: 200px; text-align: center;" class="labelBkg" xmlns="http://www.w3.org/1999/xhtml"><span class="edgeLabel"></span></div></foreignObject></g></g><g class="edgeLabel"><g transform="translate(0, 0)" class="label"><foreignObject height="0" width="0"><div style="display: table-cell; white-space: nowrap; line-height: 1.5; max-width: 200px; text-align: center;" class="labelBkg" xmlns="http://www.w3.org/1999/xhtml"><span class="edgeLabel"></span></div></foreignObject></g></g></g><g class="nodes"><g transform="translate(143.8359375, 35)" id="flowchart-A-0" class="node default"><rect height="54" width="124" y="-27" x="-62" style="" class="basic label-container"></rect><g transform="translate(-32, -12)" style="" class="label"><rect></rect><foreignObject height="24" width="64"><div style="display: table-cell; white-space: nowrap; line-height: 1.5; max-width: 200px; text-align: center;" xmlns="http://www.w3.org/1999/xhtml"><span class="nodeLabel"><p>启动参数</p></span></div></foreignObject></g></g><g transform="translate(183.8359375, 164)" id="flowchart-B-1" class="node default"><rect height="54" width="161.671875" y="-27" x="-80.8359375" style="" class="basic label-container"></rect><g transform="translate(-50.8359375, -12)" style="" class="label"><rect></rect><foreignObject height="24" width="101.671875"><div style="display: table-cell; white-space: nowrap; line-height: 1.5; max-width: 200px; text-align: center;" xmlns="http://www.w3.org/1999/xhtml"><span class="nodeLabel"><p>Realsense相机</p></span></div></foreignObject></g></g><g transform="translate(143.8359375, 680)" id="flowchart-F-3" class="node default"><rect height="54" width="139.296875" y="-27" x="-69.6484375" style="" class="basic label-container"></rect><g transform="translate(-39.6484375, -12)" style="" class="label"><rect></rect><foreignObject height="24" width="79.296875"><div style="display: table-cell; white-space: nowrap; line-height: 1.5; max-width: 200px; text-align: center;" xmlns="http://www.w3.org/1999/xhtml"><span class="nodeLabel"><p>MoveIt配置</p></span></div></foreignObject></g></g><g transform="translate(183.8359375, 268)" id="flowchart-C-5" class="node default"><rect height="54" width="132.90625" y="-27" x="-66.453125" style="" class="basic label-container"></rect><g transform="translate(-36.453125, -12)" style="" class="label"><rect></rect><foreignObject height="24" width="72.90625"><div style="display: table-cell; white-space: nowrap; line-height: 1.5; max-width: 200px; text-align: center;" xmlns="http://www.w3.org/1999/xhtml"><span class="nodeLabel"><p>Aruco识别</p></span></div></foreignObject></g></g><g transform="translate(183.8359375, 422)" id="flowchart-D-7" class="node default"><rect height="54" width="141.6875" y="-27" x="-70.84375" style="" class="basic label-container"></rect><g transform="translate(-40.84375, -12)" style="" class="label"><rect></rect><foreignObject height="24" width="81.6875"><div style="display: table-cell; white-space: nowrap; line-height: 1.5; max-width: 200px; text-align: center;" xmlns="http://www.w3.org/1999/xhtml"><span class="nodeLabel"><p>手眼标定TF</p></span></div></foreignObject></g></g><g transform="translate(183.8359375, 526)" id="flowchart-E-9" class="node default"><rect height="54" width="156" y="-27" x="-78" style="" class="basic label-container"></rect><g transform="translate(-48, -12)" style="" class="label"><rect></rect><foreignObject height="24" width="96"><div style="display: table-cell; white-space: nowrap; line-height: 1.5; max-width: 200px; text-align: center;" xmlns="http://www.w3.org/1999/xhtml"><span class="nodeLabel"><p>标记跟随控制</p></span></div></foreignObject></g></g><g transform="translate(143.8359375, 784)" id="flowchart-G-13" class="node default"><rect height="54" width="140" y="-27" x="-70" style="" class="basic label-container"></rect><g transform="translate(-40, -12)" style="" class="label"><rect></rect><foreignObject height="24" width="80"><div style="display: table-cell; white-space: nowrap; line-height: 1.5; max-width: 200px; text-align: center;" xmlns="http://www.w3.org/1999/xhtml"><span class="nodeLabel"><p>机械臂运动</p></span></div></foreignObject></g></g></g></g></g></svg>